<?xml version="1.0" encoding="UTF-8" standalone="no"?><svg xmlns="http://www.w3.org/2000/svg" xmlns:xlink="http://www.w3.org/1999/xlink" contentScriptType="application/ecmascript" contentStyleType="text/css" height="1512px" preserveAspectRatio="none" style="width:902px;height:1512px;" version="1.1" viewBox="0 0 902 1512" width="902px" zoomAndPan="magnify"><defs/><g><!--cluster MStilkerich\\CardDavClient--><polygon fill="#FFFFFF" points="262,969,450,969,457,994.0679,880,994.0679,880,1323,262,1323,262,969" style="stroke: #000000; stroke-width: 1.5;"/><line style="stroke: #000000; stroke-width: 1.5;" x1="262" x2="457" y1="994.0679" y2="994.0679"/><text fill="#000000" font-family="sans-serif" font-size="14" font-weight="bold" lengthAdjust="spacingAndGlyphs" textLength="182" x="266" y="985.9659">MStilkerich\CardDavClient</text><!--cluster MStilkerich\\CardDavClient\\Exception--><polygon fill="#FFFFFF" points="258,737,520,737,527,762.0679,641,762.0679,641,890,258,890,258,737" style="stroke: #000000; stroke-width: 1.5;"/><line style="stroke: #000000; stroke-width: 1.5;" x1="258" x2="527" y1="762.0679" y2="762.0679"/><text fill="#000000" font-family="sans-serif" font-size="14" font-weight="bold" lengthAdjust="spacingAndGlyphs" textLength="256" x="262" y="753.9659">MStilkerich\CardDavClient\Exception</text><!--cluster Psr\\Http\\Client--><polygon fill="#FFFFFF" points="22,819,134,819,141,844.0679,230,844.0679,230,972,22,972,22,819" style="stroke: #000000; stroke-width: 1.5;"/><line style="stroke: #000000; stroke-width: 1.5;" x1="22" x2="141" y1="844.0679" y2="844.0679"/><text fill="#000000" font-family="sans-serif" font-size="14" font-weight="bold" lengthAdjust="spacingAndGlyphs" textLength="106" x="26" y="835.9659">Psr\Http\Client</text><!--cluster MStilkerich\\CardDavClient\\Services--><polygon fill="#FFFFFF" points="66.5,1347,316.5,1347,323.5,1372.0679,409,1372.0679,409,1500,66.5,1500,66.5,1347" style="stroke: #000000; stroke-width: 1.5;"/><line style="stroke: #000000; stroke-width: 1.5;" x1="66.5" x2="323.5" y1="1372.0679" y2="1372.0679"/><text fill="#000000" font-family="sans-serif" font-size="14" font-weight="bold" lengthAdjust="spacingAndGlyphs" textLength="244" x="70.5" y="1363.9659">MStilkerich\CardDavClient\Services</text><!--cluster MStilkerich\\CardDavClient\\XmlElements--><polygon fill="#FFFFFF" points="268.5,24,553.5,24,560.5,49.0679,641,49.0679,641,713,268.5,713,268.5,24" style="stroke: #000000; stroke-width: 1.5;"/><line style="stroke: #000000; stroke-width: 1.5;" x1="268.5" x2="560.5" y1="49.0679" y2="49.0679"/><text fill="#000000" font-family="sans-serif" font-size="14" font-weight="bold" lengthAdjust="spacingAndGlyphs" textLength="279" x="272.5" y="40.9659">MStilkerich\CardDavClient\XmlElements</text><!--cluster Sabre\\Xml--><polygon fill="#FFFFFF" points="47,359,125,359,132,384.0679,205,384.0679,205,512,47,512,47,359" style="stroke: #000000; stroke-width: 1.5;"/><line style="stroke: #000000; stroke-width: 1.5;" x1="47" x2="132" y1="384.0679" y2="384.0679"/><text fill="#000000" font-family="sans-serif" font-size="14" font-weight="bold" lengthAdjust="spacingAndGlyphs" textLength="72" x="51" y="375.9659">Sabre\Xml</text><!--class MStilkerich\\CardDavClient\\Account--><rect fill="#FEFECE" height="32" id="MStilkerich\\CardDavClient\\Account" style="stroke: #A80036; stroke-width: 1.5;" width="77" x="305" y="1007"/><ellipse cx="320" cy="1023" fill="#ADD1B2" rx="11" ry="11" style="stroke: #A80036; stroke-width: 1.0;"/><path d="M319.4688,1029.9219 Q317.7188,1029.9219 316.5781,1029.1875 Q315.4531,1028.4375 314.8906,1027.0938 Q314.3438,1025.7344 314.3438,1023.9375 Q314.3438,1021.9063 315,1020.4531 Q315.6563,1019 316.9375,1018.2188 Q318.2188,1017.4375 320.0938,1017.4375 Q320.9844,1017.4375 321.6563,1017.625 Q322.3281,1017.7969 323.0156,1018.1406 L322.2031,1020.1563 Q321.5781,1019.8438 321.0313,1019.7188 Q320.5,1019.5938 320.0156,1019.5938 Q318.8438,1019.5938 318.1406,1020.125 Q317.4375,1020.6563 317.1406,1021.6094 Q316.8438,1022.5625 316.8438,1023.8281 Q316.8438,1025.8438 317.5625,1026.8125 Q318.2813,1027.7656 319.875,1027.7656 Q320.4688,1027.7656 321.0938,1027.6094 Q321.7188,1027.4531 322.5469,1027.0781 L322.5469,1029.2969 Q321.8125,1029.6094 321.0156,1029.7656 Q320.2344,1029.9219 319.4688,1029.9219 Z "/><text fill="#000000" font-family="sans-serif" font-size="12" lengthAdjust="spacingAndGlyphs" textLength="45" x="334" y="1027.656">Account</text><!--class MStilkerich\\CardDavClient\\AddressbookCollection--><rect fill="#FEFECE" height="32" id="MStilkerich\\CardDavClient\\AddressbookCollection" style="stroke: #A80036; stroke-width: 1.5;" width="160" x="704" y="1275"/><ellipse cx="719" cy="1291" fill="#ADD1B2" rx="11" ry="11" style="stroke: #A80036; stroke-width: 1.0;"/><path d="M718.4688,1297.9219 Q716.7188,1297.9219 715.5781,1297.1875 Q714.4531,1296.4375 713.8906,1295.0938 Q713.3438,1293.7344 713.3438,1291.9375 Q713.3438,1289.9063 714,1288.4531 Q714.6563,1287 715.9375,1286.2188 Q717.2188,1285.4375 719.0938,1285.4375 Q719.9844,1285.4375 720.6563,1285.625 Q721.3281,1285.7969 722.0156,1286.1406 L721.2031,1288.1563 Q720.5781,1287.8438 720.0313,1287.7188 Q719.5,1287.5938 719.0156,1287.5938 Q717.8438,1287.5938 717.1406,1288.125 Q716.4375,1288.6563 716.1406,1289.6094 Q715.8438,1290.5625 715.8438,1291.8281 Q715.8438,1293.8438 716.5625,1294.8125 Q717.2813,1295.7656 718.875,1295.7656 Q719.4688,1295.7656 720.0938,1295.6094 Q720.7188,1295.4531 721.5469,1295.0781 L721.5469,1297.2969 Q720.8125,1297.6094 720.0156,1297.7656 Q719.2344,1297.9219 718.4688,1297.9219 Z "/><text fill="#000000" font-family="sans-serif" font-size="12" lengthAdjust="spacingAndGlyphs" textLength="128" x="733" y="1295.656">AddressbookCollection</text><!--class MStilkerich\\CardDavClient\\WebDavCollection--><rect fill="#FEFECE" height="32" id="MStilkerich\\CardDavClient\\WebDavCollection" style="stroke: #A80036; stroke-width: 1.5;" width="134" x="491.5" y="1275"/><ellipse cx="506.5" cy="1291" fill="#ADD1B2" rx="11" ry="11" style="stroke: #A80036; stroke-width: 1.0;"/><path d="M505.9688,1297.9219 Q504.2188,1297.9219 503.0781,1297.1875 Q501.9531,1296.4375 501.3906,1295.0938 Q500.8438,1293.7344 500.8438,1291.9375 Q500.8438,1289.9063 501.5,1288.4531 Q502.1563,1287 503.4375,1286.2188 Q504.7188,1285.4375 506.5938,1285.4375 Q507.4844,1285.4375 508.1563,1285.625 Q508.8281,1285.7969 509.5156,1286.1406 L508.7031,1288.1563 Q508.0781,1287.8438 507.5313,1287.7188 Q507,1287.5938 506.5156,1287.5938 Q505.3438,1287.5938 504.6406,1288.125 Q503.9375,1288.6563 503.6406,1289.6094 Q503.3438,1290.5625 503.3438,1291.8281 Q503.3438,1293.8438 504.0625,1294.8125 Q504.7813,1295.7656 506.375,1295.7656 Q506.9688,1295.7656 507.5938,1295.6094 Q508.2188,1295.4531 509.0469,1295.0781 L509.0469,1297.2969 Q508.3125,1297.6094 507.5156,1297.7656 Q506.7344,1297.9219 505.9688,1297.9219 Z "/><text fill="#000000" font-family="sans-serif" font-size="12" lengthAdjust="spacingAndGlyphs" textLength="102" x="520.5" y="1295.656">WebDavCollection</text><!--class MStilkerich\\CardDavClient\\CardDavClient--><rect fill="#FEFECE" height="32" id="MStilkerich\\CardDavClient\\CardDavClient" style="stroke: #A80036; stroke-width: 1.5;" width="113" x="287" y="1074"/><ellipse cx="302" cy="1090" fill="#ADD1B2" rx="11" ry="11" style="stroke: #A80036; stroke-width: 1.0;"/><path d="M301.4688,1096.9219 Q299.7188,1096.9219 298.5781,1096.1875 Q297.4531,1095.4375 296.8906,1094.0938 Q296.3438,1092.7344 296.3438,1090.9375 Q296.3438,1088.9063 297,1087.4531 Q297.6563,1086 298.9375,1085.2188 Q300.2188,1084.4375 302.0938,1084.4375 Q302.9844,1084.4375 303.6563,1084.625 Q304.3281,1084.7969 305.0156,1085.1406 L304.2031,1087.1563 Q303.5781,1086.8438 303.0313,1086.7188 Q302.5,1086.5938 302.0156,1086.5938 Q300.8438,1086.5938 300.1406,1087.125 Q299.4375,1087.6563 299.1406,1088.6094 Q298.8438,1089.5625 298.8438,1090.8281 Q298.8438,1092.8438 299.5625,1093.8125 Q300.2813,1094.7656 301.875,1094.7656 Q302.4688,1094.7656 303.0938,1094.6094 Q303.7188,1094.4531 304.5469,1094.0781 L304.5469,1096.2969 Q303.8125,1096.6094 303.0156,1096.7656 Q302.2344,1096.9219 301.4688,1096.9219 Z "/><text fill="#000000" font-family="sans-serif" font-size="12" lengthAdjust="spacingAndGlyphs" textLength="81" x="316" y="1094.656">CardDavClient</text><!--class MStilkerich\\CardDavClient\\Config--><rect fill="#FEFECE" height="32" id="MStilkerich\\CardDavClient\\Config" style="stroke: #A80036; stroke-width: 1.5;" width="68" x="309.5" y="1141"/><ellipse cx="324.5" cy="1157" fill="#ADD1B2" rx="11" ry="11" style="stroke: #A80036; stroke-width: 1.0;"/><path d="M323.9688,1163.9219 Q322.2188,1163.9219 321.0781,1163.1875 Q319.9531,1162.4375 319.3906,1161.0938 Q318.8438,1159.7344 318.8438,1157.9375 Q318.8438,1155.9063 319.5,1154.4531 Q320.1563,1153 321.4375,1152.2188 Q322.7188,1151.4375 324.5938,1151.4375 Q325.4844,1151.4375 326.1563,1151.625 Q326.8281,1151.7969 327.5156,1152.1406 L326.7031,1154.1563 Q326.0781,1153.8438 325.5313,1153.7188 Q325,1153.5938 324.5156,1153.5938 Q323.3438,1153.5938 322.6406,1154.125 Q321.9375,1154.6563 321.6406,1155.6094 Q321.3438,1156.5625 321.3438,1157.8281 Q321.3438,1159.8438 322.0625,1160.8125 Q322.7813,1161.7656 324.375,1161.7656 Q324.9688,1161.7656 325.5938,1161.6094 Q326.2188,1161.4531 327.0469,1161.0781 L327.0469,1163.2969 Q326.3125,1163.6094 325.5156,1163.7656 Q324.7344,1163.9219 323.9688,1163.9219 Z "/><text fill="#000000" font-family="sans-serif" font-size="12" lengthAdjust="spacingAndGlyphs" textLength="36" x="338.5" y="1161.656">Config</text><!--class MStilkerich\\CardDavClient\\HttpClientAdapter--><rect fill="#FEFECE" height="32" id="MStilkerich\\CardDavClient\\HttpClientAdapter" style="stroke: #A80036; stroke-width: 1.5;" width="128" x="279.5" y="1208"/><ellipse cx="294.5" cy="1224" fill="#A9DCDF" rx="11" ry="11" style="stroke: #A80036; stroke-width: 1.0;"/><path d="M289.6719,1229.75 L293.0156,1217.5625 L296.1563,1217.5625 L299.5313,1229.75 L297.0625,1229.75 L296.3281,1226.7344 L292.8125,1226.7344 L292.0625,1229.75 L289.6719,1229.75 Z M294.0781,1221.7031 L293.3281,1224.7031 L295.8438,1224.7031 L295.125,1221.7031 Q294.9844,1221.125 294.8594,1220.5781 Q294.7344,1220.0156 294.5938,1219.4375 Q294.4844,1220.0156 294.3438,1220.5781 Q294.2031,1221.125 294.0781,1221.7031 Z "/><text fill="#000000" font-family="sans-serif" font-size="12" font-style="italic" lengthAdjust="spacingAndGlyphs" textLength="96" x="308.5" y="1228.656">HttpClientAdapter</text><!--class MStilkerich\\CardDavClient\\HttpClientAdapterGuzzle--><rect fill="#FEFECE" height="32" id="MStilkerich\\CardDavClient\\HttpClientAdapterGuzzle" style="stroke: #A80036; stroke-width: 1.5;" width="171" x="473" y="1208"/><ellipse cx="488" cy="1224" fill="#ADD1B2" rx="11" ry="11" style="stroke: #A80036; stroke-width: 1.0;"/><path d="M487.4688,1230.9219 Q485.7188,1230.9219 484.5781,1230.1875 Q483.4531,1229.4375 482.8906,1228.0938 Q482.3438,1226.7344 482.3438,1224.9375 Q482.3438,1222.9063 483,1221.4531 Q483.6563,1220 484.9375,1219.2188 Q486.2188,1218.4375 488.0938,1218.4375 Q488.9844,1218.4375 489.6563,1218.625 Q490.3281,1218.7969 491.0156,1219.1406 L490.2031,1221.1563 Q489.5781,1220.8438 489.0313,1220.7188 Q488.5,1220.5938 488.0156,1220.5938 Q486.8438,1220.5938 486.1406,1221.125 Q485.4375,1221.6563 485.1406,1222.6094 Q484.8438,1223.5625 484.8438,1224.8281 Q484.8438,1226.8438 485.5625,1227.8125 Q486.2813,1228.7656 487.875,1228.7656 Q488.4688,1228.7656 489.0938,1228.6094 Q489.7188,1228.4531 490.5469,1228.0781 L490.5469,1230.2969 Q489.8125,1230.6094 489.0156,1230.7656 Q488.2344,1230.9219 487.4688,1230.9219 Z "/><text fill="#000000" font-family="sans-serif" font-size="12" lengthAdjust="spacingAndGlyphs" textLength="139" x="502" y="1228.656">HttpClientAdapterGuzzle</text><!--class MStilkerich\\CardDavClient\\WebDavResource--><rect fill="#FEFECE" height="32" id="MStilkerich\\CardDavClient\\WebDavResource" style="stroke: #A80036; stroke-width: 1.5;" width="131" x="278" y="1275"/><ellipse cx="293" cy="1291" fill="#ADD1B2" rx="11" ry="11" style="stroke: #A80036; stroke-width: 1.0;"/><path d="M292.4688,1297.9219 Q290.7188,1297.9219 289.5781,1297.1875 Q288.4531,1296.4375 287.8906,1295.0938 Q287.3438,1293.7344 287.3438,1291.9375 Q287.3438,1289.9063 288,1288.4531 Q288.6563,1287 289.9375,1286.2188 Q291.2188,1285.4375 293.0938,1285.4375 Q293.9844,1285.4375 294.6563,1285.625 Q295.3281,1285.7969 296.0156,1286.1406 L295.2031,1288.1563 Q294.5781,1287.8438 294.0313,1287.7188 Q293.5,1287.5938 293.0156,1287.5938 Q291.8438,1287.5938 291.1406,1288.125 Q290.4375,1288.6563 290.1406,1289.6094 Q289.8438,1290.5625 289.8438,1291.8281 Q289.8438,1293.8438 290.5625,1294.8125 Q291.2813,1295.7656 292.875,1295.7656 Q293.4688,1295.7656 294.0938,1295.6094 Q294.7188,1295.4531 295.5469,1295.0781 L295.5469,1297.2969 Q294.8125,1297.6094 294.0156,1297.7656 Q293.2344,1297.9219 292.4688,1297.9219 Z "/><text fill="#000000" font-family="sans-serif" font-size="12" lengthAdjust="spacingAndGlyphs" textLength="99" x="307" y="1295.656">WebDavResource</text><!--class MStilkerich\\CardDavClient\\Exception\\ClientException--><rect fill="#FEFECE" height="32" id="MStilkerich\\CardDavClient\\Exception\\ClientException" style="stroke: #A80036; stroke-width: 1.5;" width="118" x="284.5" y="842"/><ellipse cx="299.5" cy="858" fill="#ADD1B2" rx="11" ry="11" style="stroke: #A80036; stroke-width: 1.0;"/><path d="M298.9688,864.9219 Q297.2188,864.9219 296.0781,864.1875 Q294.9531,863.4375 294.3906,862.0938 Q293.8438,860.7344 293.8438,858.9375 Q293.8438,856.9063 294.5,855.4531 Q295.1563,854 296.4375,853.2188 Q297.7188,852.4375 299.5938,852.4375 Q300.4844,852.4375 301.1563,852.625 Q301.8281,852.7969 302.5156,853.1406 L301.7031,855.1563 Q301.0781,854.8438 300.5313,854.7188 Q300,854.5938 299.5156,854.5938 Q298.3438,854.5938 297.6406,855.125 Q296.9375,855.6563 296.6406,856.6094 Q296.3438,857.5625 296.3438,858.8281 Q296.3438,860.8438 297.0625,861.8125 Q297.7813,862.7656 299.375,862.7656 Q299.9688,862.7656 300.5938,862.6094 Q301.2188,862.4531 302.0469,862.0781 L302.0469,864.2969 Q301.3125,864.6094 300.5156,864.7656 Q299.7344,864.9219 298.9688,864.9219 Z "/><text fill="#000000" font-family="sans-serif" font-size="12" lengthAdjust="spacingAndGlyphs" textLength="86" x="313.5" y="862.656">ClientException</text><!--class MStilkerich\\CardDavClient\\Exception\\NetworkException--><rect fill="#FEFECE" height="32" id="MStilkerich\\CardDavClient\\Exception\\NetworkException" style="stroke: #A80036; stroke-width: 1.5;" width="133" x="492" y="842"/><ellipse cx="507" cy="858" fill="#ADD1B2" rx="11" ry="11" style="stroke: #A80036; stroke-width: 1.0;"/><path d="M506.4688,864.9219 Q504.7188,864.9219 503.5781,864.1875 Q502.4531,863.4375 501.8906,862.0938 Q501.3438,860.7344 501.3438,858.9375 Q501.3438,856.9063 502,855.4531 Q502.6563,854 503.9375,853.2188 Q505.2188,852.4375 507.0938,852.4375 Q507.9844,852.4375 508.6563,852.625 Q509.3281,852.7969 510.0156,853.1406 L509.2031,855.1563 Q508.5781,854.8438 508.0313,854.7188 Q507.5,854.5938 507.0156,854.5938 Q505.8438,854.5938 505.1406,855.125 Q504.4375,855.6563 504.1406,856.6094 Q503.8438,857.5625 503.8438,858.8281 Q503.8438,860.8438 504.5625,861.8125 Q505.2813,862.7656 506.875,862.7656 Q507.4688,862.7656 508.0938,862.6094 Q508.7188,862.4531 509.5469,862.0781 L509.5469,864.2969 Q508.8125,864.6094 508.0156,864.7656 Q507.2344,864.9219 506.4688,864.9219 Z "/><text fill="#000000" font-family="sans-serif" font-size="12" lengthAdjust="spacingAndGlyphs" textLength="101" x="521" y="862.656">NetworkException</text><!--class MStilkerich\\CardDavClient\\Exception\\XmlParseException--><rect fill="#FEFECE" height="32" id="MStilkerich\\CardDavClient\\Exception\\XmlParseException" style="stroke: #A80036; stroke-width: 1.5;" width="139" x="274" y="775"/><ellipse cx="289" cy="791" fill="#ADD1B2" rx="11" ry="11" style="stroke: #A80036; stroke-width: 1.0;"/><path d="M288.4688,797.9219 Q286.7188,797.9219 285.5781,797.1875 Q284.4531,796.4375 283.8906,795.0938 Q283.3438,793.7344 283.3438,791.9375 Q283.3438,789.9063 284,788.4531 Q284.6563,787 285.9375,786.2188 Q287.2188,785.4375 289.0938,785.4375 Q289.9844,785.4375 290.6563,785.625 Q291.3281,785.7969 292.0156,786.1406 L291.2031,788.1563 Q290.5781,787.8438 290.0313,787.7188 Q289.5,787.5938 289.0156,787.5938 Q287.8438,787.5938 287.1406,788.125 Q286.4375,788.6563 286.1406,789.6094 Q285.8438,790.5625 285.8438,791.8281 Q285.8438,793.8438 286.5625,794.8125 Q287.2813,795.7656 288.875,795.7656 Q289.4688,795.7656 290.0938,795.6094 Q290.7188,795.4531 291.5469,795.0781 L291.5469,797.2969 Q290.8125,797.6094 290.0156,797.7656 Q289.2344,797.9219 288.4688,797.9219 Z "/><text fill="#000000" font-family="sans-serif" font-size="12" lengthAdjust="spacingAndGlyphs" textLength="107" x="303" y="795.656">XmlParseException</text><!--class Psr\\Http\\Client\\ClientExceptionInterface--><rect fill="#FEFECE" height="32" id="Psr\\Http\\Client\\ClientExceptionInterface" style="stroke: #A80036; stroke-width: 1.5;" width="161" x="45.5" y="857"/><ellipse cx="60.5" cy="873" fill="#B4A7E5" rx="11" ry="11" style="stroke: #A80036; stroke-width: 1.0;"/><path d="M56.5313,879.5 L56.5313,877.7969 L58.8906,877.5313 L58.8906,869.3281 L56.5313,869.0625 L56.5313,867.3594 L63.6719,867.3594 L63.6719,869.0625 L61.25,869.3281 L61.25,877.5313 L63.6719,877.7969 L63.6719,879.5 L56.5313,879.5 Z "/><text fill="#000000" font-family="sans-serif" font-size="12" font-style="italic" lengthAdjust="spacingAndGlyphs" textLength="129" x="74.5" y="877.656">ClientExceptionInterface</text><!--class Psr\\Http\\Client\\NetworkExceptionInterface--><rect fill="#FEFECE" height="32" id="Psr\\Http\\Client\\NetworkExceptionInterface" style="stroke: #A80036; stroke-width: 1.5;" width="176" x="38" y="924"/><ellipse cx="53" cy="940" fill="#B4A7E5" rx="11" ry="11" style="stroke: #A80036; stroke-width: 1.0;"/><path d="M49.0313,946.5 L49.0313,944.7969 L51.3906,944.5313 L51.3906,936.3281 L49.0313,936.0625 L49.0313,934.3594 L56.1719,934.3594 L56.1719,936.0625 L53.75,936.3281 L53.75,944.5313 L56.1719,944.7969 L56.1719,946.5 L49.0313,946.5 Z "/><text fill="#000000" font-family="sans-serif" font-size="12" font-style="italic" lengthAdjust="spacingAndGlyphs" textLength="144" x="67" y="944.656">NetworkExceptionInterface</text><!--class MStilkerich\\CardDavClient\\Services\\Discovery--><rect fill="#FEFECE" height="32" id="MStilkerich\\CardDavClient\\Services\\Discovery" style="stroke: #A80036; stroke-width: 1.5;" width="87" x="82.5" y="1452"/><ellipse cx="97.5" cy="1468" fill="#ADD1B2" rx="11" ry="11" style="stroke: #A80036; stroke-width: 1.0;"/><path d="M96.9688,1474.9219 Q95.2188,1474.9219 94.0781,1474.1875 Q92.9531,1473.4375 92.3906,1472.0938 Q91.8438,1470.7344 91.8438,1468.9375 Q91.8438,1466.9063 92.5,1465.4531 Q93.1563,1464 94.4375,1463.2188 Q95.7188,1462.4375 97.5938,1462.4375 Q98.4844,1462.4375 99.1563,1462.625 Q99.8281,1462.7969 100.5156,1463.1406 L99.7031,1465.1563 Q99.0781,1464.8438 98.5313,1464.7188 Q98,1464.5938 97.5156,1464.5938 Q96.3438,1464.5938 95.6406,1465.125 Q94.9375,1465.6563 94.6406,1466.6094 Q94.3438,1467.5625 94.3438,1468.8281 Q94.3438,1470.8438 95.0625,1471.8125 Q95.7813,1472.7656 97.375,1472.7656 Q97.9688,1472.7656 98.5938,1472.6094 Q99.2188,1472.4531 100.0469,1472.0781 L100.0469,1474.2969 Q99.3125,1474.6094 98.5156,1474.7656 Q97.7344,1474.9219 96.9688,1474.9219 Z "/><text fill="#000000" font-family="sans-serif" font-size="12" lengthAdjust="spacingAndGlyphs" textLength="55" x="111.5" y="1472.656">Discovery</text><!--class MStilkerich\\CardDavClient\\Services\\Sync--><rect fill="#FEFECE" height="32" id="MStilkerich\\CardDavClient\\Services\\Sync" style="stroke: #A80036; stroke-width: 1.5;" width="58" x="97" y="1385"/><ellipse cx="112" cy="1401" fill="#ADD1B2" rx="11" ry="11" style="stroke: #A80036; stroke-width: 1.0;"/><path d="M111.4688,1407.9219 Q109.7188,1407.9219 108.5781,1407.1875 Q107.4531,1406.4375 106.8906,1405.0938 Q106.3438,1403.7344 106.3438,1401.9375 Q106.3438,1399.9063 107,1398.4531 Q107.6563,1397 108.9375,1396.2188 Q110.2188,1395.4375 112.0938,1395.4375 Q112.9844,1395.4375 113.6563,1395.625 Q114.3281,1395.7969 115.0156,1396.1406 L114.2031,1398.1563 Q113.5781,1397.8438 113.0313,1397.7188 Q112.5,1397.5938 112.0156,1397.5938 Q110.8438,1397.5938 110.1406,1398.125 Q109.4375,1398.6563 109.1406,1399.6094 Q108.8438,1400.5625 108.8438,1401.8281 Q108.8438,1403.8438 109.5625,1404.8125 Q110.2813,1405.7656 111.875,1405.7656 Q112.4688,1405.7656 113.0938,1405.6094 Q113.7188,1405.4531 114.5469,1405.0781 L114.5469,1407.2969 Q113.8125,1407.6094 113.0156,1407.7656 Q112.2344,1407.9219 111.4688,1407.9219 Z "/><text fill="#000000" font-family="sans-serif" font-size="12" lengthAdjust="spacingAndGlyphs" textLength="26" x="126" y="1405.656">Sync</text><!--class MStilkerich\\CardDavClient\\Services\\SyncResult--><rect fill="#FEFECE" height="32" id="MStilkerich\\CardDavClient\\Services\\SyncResult" style="stroke: #A80036; stroke-width: 1.5;" width="92" x="297.5" y="1452"/><ellipse cx="312.5" cy="1468" fill="#ADD1B2" rx="11" ry="11" style="stroke: #A80036; stroke-width: 1.0;"/><path d="M311.9688,1474.9219 Q310.2188,1474.9219 309.0781,1474.1875 Q307.9531,1473.4375 307.3906,1472.0938 Q306.8438,1470.7344 306.8438,1468.9375 Q306.8438,1466.9063 307.5,1465.4531 Q308.1563,1464 309.4375,1463.2188 Q310.7188,1462.4375 312.5938,1462.4375 Q313.4844,1462.4375 314.1563,1462.625 Q314.8281,1462.7969 315.5156,1463.1406 L314.7031,1465.1563 Q314.0781,1464.8438 313.5313,1464.7188 Q313,1464.5938 312.5156,1464.5938 Q311.3438,1464.5938 310.6406,1465.125 Q309.9375,1465.6563 309.6406,1466.6094 Q309.3438,1467.5625 309.3438,1468.8281 Q309.3438,1470.8438 310.0625,1471.8125 Q310.7813,1472.7656 312.375,1472.7656 Q312.9688,1472.7656 313.5938,1472.6094 Q314.2188,1472.4531 315.0469,1472.0781 L315.0469,1474.2969 Q314.3125,1474.6094 313.5156,1474.7656 Q312.7344,1474.9219 311.9688,1474.9219 Z "/><text fill="#000000" font-family="sans-serif" font-size="12" lengthAdjust="spacingAndGlyphs" textLength="60" x="326.5" y="1472.656">SyncResult</text><!--class MStilkerich\\CardDavClient\\Services\\SyncHandler--><rect fill="#FEFECE" height="32" id="MStilkerich\\CardDavClient\\Services\\SyncHandler" style="stroke: #A80036; stroke-width: 1.5;" width="99" x="294" y="1385"/><ellipse cx="309" cy="1401" fill="#B4A7E5" rx="11" ry="11" style="stroke: #A80036; stroke-width: 1.0;"/><path d="M305.0313,1407.5 L305.0313,1405.7969 L307.3906,1405.5313 L307.3906,1397.3281 L305.0313,1397.0625 L305.0313,1395.3594 L312.1719,1395.3594 L312.1719,1397.0625 L309.75,1397.3281 L309.75,1405.5313 L312.1719,1405.7969 L312.1719,1407.5 L305.0313,1407.5 Z "/><text fill="#000000" font-family="sans-serif" font-size="12" font-style="italic" lengthAdjust="spacingAndGlyphs" textLength="67" x="323" y="1405.656">SyncHandler</text><!--class MStilkerich\\CardDavClient\\XmlElements\\Deserializers--><rect fill="#FEFECE" height="32" id="MStilkerich\\CardDavClient\\XmlElements\\Deserializers" style="stroke: #A80036; stroke-width: 1.5;" width="106" x="290.5" y="62"/><ellipse cx="305.5" cy="78" fill="#ADD1B2" rx="11" ry="11" style="stroke: #A80036; stroke-width: 1.0;"/><path d="M304.9688,84.9219 Q303.2188,84.9219 302.0781,84.1875 Q300.9531,83.4375 300.3906,82.0938 Q299.8438,80.7344 299.8438,78.9375 Q299.8438,76.9063 300.5,75.4531 Q301.1563,74 302.4375,73.2188 Q303.7188,72.4375 305.5938,72.4375 Q306.4844,72.4375 307.1563,72.625 Q307.8281,72.7969 308.5156,73.1406 L307.7031,75.1563 Q307.0781,74.8438 306.5313,74.7188 Q306,74.5938 305.5156,74.5938 Q304.3438,74.5938 303.6406,75.125 Q302.9375,75.6563 302.6406,76.6094 Q302.3438,77.5625 302.3438,78.8281 Q302.3438,80.8438 303.0625,81.8125 Q303.7813,82.7656 305.375,82.7656 Q305.9688,82.7656 306.5938,82.6094 Q307.2188,82.4531 308.0469,82.0781 L308.0469,84.2969 Q307.3125,84.6094 306.5156,84.7656 Q305.7344,84.9219 304.9688,84.9219 Z "/><text fill="#000000" font-family="sans-serif" font-size="12" lengthAdjust="spacingAndGlyphs" textLength="74" x="319.5" y="82.656">Deserializers</text><!--class MStilkerich\\CardDavClient\\XmlElements\\ElementNames--><rect fill="#FEFECE" height="32" id="MStilkerich\\CardDavClient\\XmlElements\\ElementNames" style="stroke: #A80036; stroke-width: 1.5;" width="118" x="284.5" y="129"/><ellipse cx="299.5" cy="145" fill="#ADD1B2" rx="11" ry="11" style="stroke: #A80036; stroke-width: 1.0;"/><path d="M298.9688,151.9219 Q297.2188,151.9219 296.0781,151.1875 Q294.9531,150.4375 294.3906,149.0938 Q293.8438,147.7344 293.8438,145.9375 Q293.8438,143.9063 294.5,142.4531 Q295.1563,141 296.4375,140.2188 Q297.7188,139.4375 299.5938,139.4375 Q300.4844,139.4375 301.1563,139.625 Q301.8281,139.7969 302.5156,140.1406 L301.7031,142.1563 Q301.0781,141.8438 300.5313,141.7188 Q300,141.5938 299.5156,141.5938 Q298.3438,141.5938 297.6406,142.125 Q296.9375,142.6563 296.6406,143.6094 Q296.3438,144.5625 296.3438,145.8281 Q296.3438,147.8438 297.0625,148.8125 Q297.7813,149.7656 299.375,149.7656 Q299.9688,149.7656 300.5938,149.6094 Q301.2188,149.4531 302.0469,149.0781 L302.0469,151.2969 Q301.3125,151.6094 300.5156,151.7656 Q299.7344,151.9219 298.9688,151.9219 Z "/><text fill="#000000" font-family="sans-serif" font-size="12" lengthAdjust="spacingAndGlyphs" textLength="86" x="313.5" y="149.656">ElementNames</text><!--class MStilkerich\\CardDavClient\\XmlElements\\Filter--><rect fill="#FEFECE" height="32" id="MStilkerich\\CardDavClient\\XmlElements\\Filter" style="stroke: #A80036; stroke-width: 1.5;" width="60" x="313.5" y="196"/><ellipse cx="328.5" cy="212" fill="#ADD1B2" rx="11" ry="11" style="stroke: #A80036; stroke-width: 1.0;"/><path d="M327.9688,218.9219 Q326.2188,218.9219 325.0781,218.1875 Q323.9531,217.4375 323.3906,216.0938 Q322.8438,214.7344 322.8438,212.9375 Q322.8438,210.9063 323.5,209.4531 Q324.1563,208 325.4375,207.2188 Q326.7188,206.4375 328.5938,206.4375 Q329.4844,206.4375 330.1563,206.625 Q330.8281,206.7969 331.5156,207.1406 L330.7031,209.1563 Q330.0781,208.8438 329.5313,208.7188 Q329,208.5938 328.5156,208.5938 Q327.3438,208.5938 326.6406,209.125 Q325.9375,209.6563 325.6406,210.6094 Q325.3438,211.5625 325.3438,212.8281 Q325.3438,214.8438 326.0625,215.8125 Q326.7813,216.7656 328.375,216.7656 Q328.9688,216.7656 329.5938,216.6094 Q330.2188,216.4531 331.0469,216.0781 L331.0469,218.2969 Q330.3125,218.6094 329.5156,218.7656 Q328.7344,218.9219 327.9688,218.9219 Z "/><text fill="#000000" font-family="sans-serif" font-size="12" lengthAdjust="spacingAndGlyphs" textLength="28" x="342.5" y="216.656">Filter</text><!--class MStilkerich\\CardDavClient\\XmlElements\\Multistatus--><rect fill="#FEFECE" height="32" id="MStilkerich\\CardDavClient\\XmlElements\\Multistatus" style="stroke: #A80036; stroke-width: 1.5;" width="94" x="296.5" y="464"/><ellipse cx="311.5" cy="480" fill="#ADD1B2" rx="11" ry="11" style="stroke: #A80036; stroke-width: 1.0;"/><path d="M310.9688,486.9219 Q309.2188,486.9219 308.0781,486.1875 Q306.9531,485.4375 306.3906,484.0938 Q305.8438,482.7344 305.8438,480.9375 Q305.8438,478.9063 306.5,477.4531 Q307.1563,476 308.4375,475.2188 Q309.7188,474.4375 311.5938,474.4375 Q312.4844,474.4375 313.1563,474.625 Q313.8281,474.7969 314.5156,475.1406 L313.7031,477.1563 Q313.0781,476.8438 312.5313,476.7188 Q312,476.5938 311.5156,476.5938 Q310.3438,476.5938 309.6406,477.125 Q308.9375,477.6563 308.6406,478.6094 Q308.3438,479.5625 308.3438,480.8281 Q308.3438,482.8438 309.0625,483.8125 Q309.7813,484.7656 311.375,484.7656 Q311.9688,484.7656 312.5938,484.6094 Q313.2188,484.4531 314.0469,484.0781 L314.0469,486.2969 Q313.3125,486.6094 312.5156,486.7656 Q311.7344,486.9219 310.9688,486.9219 Z "/><text fill="#000000" font-family="sans-serif" font-size="12" lengthAdjust="spacingAndGlyphs" textLength="62" x="325.5" y="484.656">Multistatus</text><!--class MStilkerich\\CardDavClient\\XmlElements\\ParamFilter--><rect fill="#FEFECE" height="32" id="MStilkerich\\CardDavClient\\XmlElements\\ParamFilter" style="stroke: #A80036; stroke-width: 1.5;" width="97" x="295" y="263"/><ellipse cx="310" cy="279" fill="#ADD1B2" rx="11" ry="11" style="stroke: #A80036; stroke-width: 1.0;"/><path d="M309.4688,285.9219 Q307.7188,285.9219 306.5781,285.1875 Q305.4531,284.4375 304.8906,283.0938 Q304.3438,281.7344 304.3438,279.9375 Q304.3438,277.9063 305,276.4531 Q305.6563,275 306.9375,274.2188 Q308.2188,273.4375 310.0938,273.4375 Q310.9844,273.4375 311.6563,273.625 Q312.3281,273.7969 313.0156,274.1406 L312.2031,276.1563 Q311.5781,275.8438 311.0313,275.7188 Q310.5,275.5938 310.0156,275.5938 Q308.8438,275.5938 308.1406,276.125 Q307.4375,276.6563 307.1406,277.6094 Q306.8438,278.5625 306.8438,279.8281 Q306.8438,281.8438 307.5625,282.8125 Q308.2813,283.7656 309.875,283.7656 Q310.4688,283.7656 311.0938,283.6094 Q311.7188,283.4531 312.5469,283.0781 L312.5469,285.2969 Q311.8125,285.6094 311.0156,285.7656 Q310.2344,285.9219 309.4688,285.9219 Z "/><text fill="#000000" font-family="sans-serif" font-size="12" lengthAdjust="spacingAndGlyphs" textLength="65" x="324" y="283.656">ParamFilter</text><!--class MStilkerich\\CardDavClient\\XmlElements\\Prop--><rect fill="#FEFECE" height="32" id="MStilkerich\\CardDavClient\\XmlElements\\Prop" style="stroke: #A80036; stroke-width: 1.5;" width="58" x="314.5" y="531"/><ellipse cx="329.5" cy="547" fill="#ADD1B2" rx="11" ry="11" style="stroke: #A80036; stroke-width: 1.0;"/><path d="M328.9688,553.9219 Q327.2188,553.9219 326.0781,553.1875 Q324.9531,552.4375 324.3906,551.0938 Q323.8438,549.7344 323.8438,547.9375 Q323.8438,545.9063 324.5,544.4531 Q325.1563,543 326.4375,542.2188 Q327.7188,541.4375 329.5938,541.4375 Q330.4844,541.4375 331.1563,541.625 Q331.8281,541.7969 332.5156,542.1406 L331.7031,544.1563 Q331.0781,543.8438 330.5313,543.7188 Q330,543.5938 329.5156,543.5938 Q328.3438,543.5938 327.6406,544.125 Q326.9375,544.6563 326.6406,545.6094 Q326.3438,546.5625 326.3438,547.8281 Q326.3438,549.8438 327.0625,550.8125 Q327.7813,551.7656 329.375,551.7656 Q329.9688,551.7656 330.5938,551.6094 Q331.2188,551.4531 332.0469,551.0781 L332.0469,553.2969 Q331.3125,553.6094 330.5156,553.7656 Q329.7344,553.9219 328.9688,553.9219 Z "/><text fill="#000000" font-family="sans-serif" font-size="12" lengthAdjust="spacingAndGlyphs" textLength="26" x="343.5" y="551.656">Prop</text><!--class MStilkerich\\CardDavClient\\XmlElements\\PropFilter--><rect fill="#FEFECE" height="32" id="MStilkerich\\CardDavClient\\XmlElements\\PropFilter" style="stroke: #A80036; stroke-width: 1.5;" width="86" x="300.5" y="330"/><ellipse cx="315.5" cy="346" fill="#ADD1B2" rx="11" ry="11" style="stroke: #A80036; stroke-width: 1.0;"/><path d="M314.9688,352.9219 Q313.2188,352.9219 312.0781,352.1875 Q310.9531,351.4375 310.3906,350.0938 Q309.8438,348.7344 309.8438,346.9375 Q309.8438,344.9063 310.5,343.4531 Q311.1563,342 312.4375,341.2188 Q313.7188,340.4375 315.5938,340.4375 Q316.4844,340.4375 317.1563,340.625 Q317.8281,340.7969 318.5156,341.1406 L317.7031,343.1563 Q317.0781,342.8438 316.5313,342.7188 Q316,342.5938 315.5156,342.5938 Q314.3438,342.5938 313.6406,343.125 Q312.9375,343.6563 312.6406,344.6094 Q312.3438,345.5625 312.3438,346.8281 Q312.3438,348.8438 313.0625,349.8125 Q313.7813,350.7656 315.375,350.7656 Q315.9688,350.7656 316.5938,350.6094 Q317.2188,350.4531 318.0469,350.0781 L318.0469,352.2969 Q317.3125,352.6094 316.5156,352.7656 Q315.7344,352.9219 314.9688,352.9219 Z "/><text fill="#000000" font-family="sans-serif" font-size="12" lengthAdjust="spacingAndGlyphs" textLength="54" x="329.5" y="350.656">PropFilter</text><!--class MStilkerich\\CardDavClient\\XmlElements\\Propstat--><rect fill="#FEFECE" height="32" id="MStilkerich\\CardDavClient\\XmlElements\\Propstat" style="stroke: #A80036; stroke-width: 1.5;" width="79" x="304" y="598"/><ellipse cx="319" cy="614" fill="#ADD1B2" rx="11" ry="11" style="stroke: #A80036; stroke-width: 1.0;"/><path d="M318.4688,620.9219 Q316.7188,620.9219 315.5781,620.1875 Q314.4531,619.4375 313.8906,618.0938 Q313.3438,616.7344 313.3438,614.9375 Q313.3438,612.9063 314,611.4531 Q314.6563,610 315.9375,609.2188 Q317.2188,608.4375 319.0938,608.4375 Q319.9844,608.4375 320.6563,608.625 Q321.3281,608.7969 322.0156,609.1406 L321.2031,611.1563 Q320.5781,610.8438 320.0313,610.7188 Q319.5,610.5938 319.0156,610.5938 Q317.8438,610.5938 317.1406,611.125 Q316.4375,611.6563 316.1406,612.6094 Q315.8438,613.5625 315.8438,614.8281 Q315.8438,616.8438 316.5625,617.8125 Q317.2813,618.7656 318.875,618.7656 Q319.4688,618.7656 320.0938,618.6094 Q320.7188,618.4531 321.5469,618.0781 L321.5469,620.2969 Q320.8125,620.6094 320.0156,620.7656 Q319.2344,620.9219 318.4688,620.9219 Z "/><text fill="#000000" font-family="sans-serif" font-size="12" lengthAdjust="spacingAndGlyphs" textLength="47" x="333" y="618.656">Propstat</text><!--class MStilkerich\\CardDavClient\\XmlElements\\Response--><rect fill="#FEFECE" height="32" id="MStilkerich\\CardDavClient\\XmlElements\\Response" style="stroke: #A80036; stroke-width: 1.5;" width="82" x="302.5" y="665"/><ellipse cx="317.5" cy="681" fill="#A9DCDF" rx="11" ry="11" style="stroke: #A80036; stroke-width: 1.0;"/><path d="M312.6719,686.75 L316.0156,674.5625 L319.1563,674.5625 L322.5313,686.75 L320.0625,686.75 L319.3281,683.7344 L315.8125,683.7344 L315.0625,686.75 L312.6719,686.75 Z M317.0781,678.7031 L316.3281,681.7031 L318.8438,681.7031 L318.125,678.7031 Q317.9844,678.125 317.8594,677.5781 Q317.7344,677.0156 317.5938,676.4375 Q317.4844,677.0156 317.3438,677.5781 Q317.2031,678.125 317.0781,678.7031 Z "/><text fill="#000000" font-family="sans-serif" font-size="12" font-style="italic" lengthAdjust="spacingAndGlyphs" textLength="50" x="331.5" y="685.656">Response</text><!--class MStilkerich\\CardDavClient\\XmlElements\\ResponsePropstat--><rect fill="#FEFECE" height="32" id="MStilkerich\\CardDavClient\\XmlElements\\ResponsePropstat" style="stroke: #A80036; stroke-width: 1.5;" width="133" x="492" y="598"/><ellipse cx="507" cy="614" fill="#ADD1B2" rx="11" ry="11" style="stroke: #A80036; stroke-width: 1.0;"/><path d="M506.4688,620.9219 Q504.7188,620.9219 503.5781,620.1875 Q502.4531,619.4375 501.8906,618.0938 Q501.3438,616.7344 501.3438,614.9375 Q501.3438,612.9063 502,611.4531 Q502.6563,610 503.9375,609.2188 Q505.2188,608.4375 507.0938,608.4375 Q507.9844,608.4375 508.6563,608.625 Q509.3281,608.7969 510.0156,609.1406 L509.2031,611.1563 Q508.5781,610.8438 508.0313,610.7188 Q507.5,610.5938 507.0156,610.5938 Q505.8438,610.5938 505.1406,611.125 Q504.4375,611.6563 504.1406,612.6094 Q503.8438,613.5625 503.8438,614.8281 Q503.8438,616.8438 504.5625,617.8125 Q505.2813,618.7656 506.875,618.7656 Q507.4688,618.7656 508.0938,618.6094 Q508.7188,618.4531 509.5469,618.0781 L509.5469,620.2969 Q508.8125,620.6094 508.0156,620.7656 Q507.2344,620.9219 506.4688,620.9219 Z "/><text fill="#000000" font-family="sans-serif" font-size="12" lengthAdjust="spacingAndGlyphs" textLength="101" x="521" y="618.656">ResponsePropstat</text><!--class MStilkerich\\CardDavClient\\XmlElements\\ResponseStatus--><rect fill="#FEFECE" height="32" id="MStilkerich\\CardDavClient\\XmlElements\\ResponseStatus" style="stroke: #A80036; stroke-width: 1.5;" width="121" x="498" y="665"/><ellipse cx="513" cy="681" fill="#ADD1B2" rx="11" ry="11" style="stroke: #A80036; stroke-width: 1.0;"/><path d="M512.4688,687.9219 Q510.7188,687.9219 509.5781,687.1875 Q508.4531,686.4375 507.8906,685.0938 Q507.3438,683.7344 507.3438,681.9375 Q507.3438,679.9063 508,678.4531 Q508.6563,677 509.9375,676.2188 Q511.2188,675.4375 513.0938,675.4375 Q513.9844,675.4375 514.6563,675.625 Q515.3281,675.7969 516.0156,676.1406 L515.2031,678.1563 Q514.5781,677.8438 514.0313,677.7188 Q513.5,677.5938 513.0156,677.5938 Q511.8438,677.5938 511.1406,678.125 Q510.4375,678.6563 510.1406,679.6094 Q509.8438,680.5625 509.8438,681.8281 Q509.8438,683.8438 510.5625,684.8125 Q511.2813,685.7656 512.875,685.7656 Q513.4688,685.7656 514.0938,685.6094 Q514.7188,685.4531 515.5469,685.0781 L515.5469,687.2969 Q514.8125,687.6094 514.0156,687.7656 Q513.2344,687.9219 512.4688,687.9219 Z "/><text fill="#000000" font-family="sans-serif" font-size="12" lengthAdjust="spacingAndGlyphs" textLength="89" x="527" y="685.656">ResponseStatus</text><!--class MStilkerich\\CardDavClient\\XmlElements\\TextMatch--><rect fill="#FEFECE" height="32" id="MStilkerich\\CardDavClient\\XmlElements\\TextMatch" style="stroke: #A80036; stroke-width: 1.5;" width="91" x="298" y="397"/><ellipse cx="313" cy="413" fill="#ADD1B2" rx="11" ry="11" style="stroke: #A80036; stroke-width: 1.0;"/><path d="M312.4688,419.9219 Q310.7188,419.9219 309.5781,419.1875 Q308.4531,418.4375 307.8906,417.0938 Q307.3438,415.7344 307.3438,413.9375 Q307.3438,411.9063 308,410.4531 Q308.6563,409 309.9375,408.2188 Q311.2188,407.4375 313.0938,407.4375 Q313.9844,407.4375 314.6563,407.625 Q315.3281,407.7969 316.0156,408.1406 L315.2031,410.1563 Q314.5781,409.8438 314.0313,409.7188 Q313.5,409.5938 313.0156,409.5938 Q311.8438,409.5938 311.1406,410.125 Q310.4375,410.6563 310.1406,411.6094 Q309.8438,412.5625 309.8438,413.8281 Q309.8438,415.8438 310.5625,416.8125 Q311.2813,417.7656 312.875,417.7656 Q313.4688,417.7656 314.0938,417.6094 Q314.7188,417.4531 315.5469,417.0781 L315.5469,419.2969 Q314.8125,419.6094 314.0156,419.7656 Q313.2344,419.9219 312.4688,419.9219 Z "/><text fill="#000000" font-family="sans-serif" font-size="12" lengthAdjust="spacingAndGlyphs" textLength="59" x="327" y="417.656">TextMatch</text><!--class Sabre\\Xml\\XmlSerializable--><rect fill="#FEFECE" height="32" id="Sabre\\Xml\\XmlSerializable" style="stroke: #A80036; stroke-width: 1.5;" width="113" x="69.5" y="397"/><ellipse cx="84.5" cy="413" fill="#B4A7E5" rx="11" ry="11" style="stroke: #A80036; stroke-width: 1.0;"/><path d="M80.5313,419.5 L80.5313,417.7969 L82.8906,417.5313 L82.8906,409.3281 L80.5313,409.0625 L80.5313,407.3594 L87.6719,407.3594 L87.6719,409.0625 L85.25,409.3281 L85.25,417.5313 L87.6719,417.7969 L87.6719,419.5 L80.5313,419.5 Z "/><text fill="#000000" font-family="sans-serif" font-size="12" font-style="italic" lengthAdjust="spacingAndGlyphs" textLength="81" x="98.5" y="417.656">XmlSerializable</text><!--class Sabre\\Xml\\XmlDeserializable--><rect fill="#FEFECE" height="32" id="Sabre\\Xml\\XmlDeserializable" style="stroke: #A80036; stroke-width: 1.5;" width="126" x="63" y="464"/><ellipse cx="78" cy="480" fill="#B4A7E5" rx="11" ry="11" style="stroke: #A80036; stroke-width: 1.0;"/><path d="M74.0313,486.5 L74.0313,484.7969 L76.3906,484.5313 L76.3906,476.3281 L74.0313,476.0625 L74.0313,474.3594 L81.1719,474.3594 L81.1719,476.0625 L78.75,476.3281 L78.75,484.5313 L81.1719,484.7969 L81.1719,486.5 L74.0313,486.5 Z "/><text fill="#000000" font-family="sans-serif" font-size="12" font-style="italic" lengthAdjust="spacingAndGlyphs" textLength="94" x="92" y="484.656">XmlDeserializable</text><!--class JsonSerializable--><rect fill="#FEFECE" height="32" id="JsonSerializable" style="stroke: #A80036; stroke-width: 1.5;" width="115" x="68.5" y="1141"/><ellipse cx="83.5" cy="1157" fill="#B4A7E5" rx="11" ry="11" style="stroke: #A80036; stroke-width: 1.0;"/><path d="M79.5313,1163.5 L79.5313,1161.7969 L81.8906,1161.5313 L81.8906,1153.3281 L79.5313,1153.0625 L79.5313,1151.3594 L86.6719,1151.3594 L86.6719,1153.0625 L84.25,1153.3281 L84.25,1161.5313 L86.6719,1161.7969 L86.6719,1163.5 L79.5313,1163.5 Z "/><text fill="#000000" font-family="sans-serif" font-size="12" font-style="italic" lengthAdjust="spacingAndGlyphs" textLength="83" x="97.5" y="1161.656">JsonSerializable</text><!--class Exception--><rect fill="#FEFECE" height="32" id="Exception" style="stroke: #A80036; stroke-width: 1.5;" width="86" x="83" y="771"/><ellipse cx="98" cy="787" fill="#ADD1B2" rx="11" ry="11" style="stroke: #A80036; stroke-width: 1.0;"/><path d="M97.4688,793.9219 Q95.7188,793.9219 94.5781,793.1875 Q93.4531,792.4375 92.8906,791.0938 Q92.3438,789.7344 92.3438,787.9375 Q92.3438,785.9063 93,784.4531 Q93.6563,783 94.9375,782.2188 Q96.2188,781.4375 98.0938,781.4375 Q98.9844,781.4375 99.6563,781.625 Q100.3281,781.7969 101.0156,782.1406 L100.2031,784.1563 Q99.5781,783.8438 99.0313,783.7188 Q98.5,783.5938 98.0156,783.5938 Q96.8438,783.5938 96.1406,784.125 Q95.4375,784.6563 95.1406,785.6094 Q94.8438,786.5625 94.8438,787.8281 Q94.8438,789.8438 95.5625,790.8125 Q96.2813,791.7656 97.875,791.7656 Q98.4688,791.7656 99.0938,791.6094 Q99.7188,791.4531 100.5469,791.0781 L100.5469,793.2969 Q99.8125,793.6094 99.0156,793.7656 Q98.2344,793.9219 97.4688,793.9219 Z "/><text fill="#000000" font-family="sans-serif" font-size="12" lengthAdjust="spacingAndGlyphs" textLength="54" x="112" y="791.656">Exception</text><!--link JsonSerializable to MStilkerich\\CardDavClient\\Account--><path d="M126,1120.84 C126,1120.84 126,1023 126,1023 C126,1023 242.37,1023 304.87,1023 " fill="none" id="JsonSerializable-MStilkerich\\CardDavClient\\Account" style="stroke: #A80036; stroke-width: 1.0; stroke-dasharray: 7.0,7.0;"/><polygon fill="none" points="133,1120.84,126,1140.84,119,1120.84,133,1120.84" style="stroke: #A80036; stroke-width: 1.0;"/><!--link MStilkerich\\CardDavClient\\WebDavCollection to MStilkerich\\CardDavClient\\AddressbookCollection--><path d="M645.55,1291 C645.55,1291 703.68,1291 703.68,1291 " fill="none" id="MStilkerich\\CardDavClient\\WebDavCollection-MStilkerich\\CardDavClient\\AddressbookCollection" style="stroke: #A80036; stroke-width: 1.0;"/><polygon fill="none" points="645.55,1298,625.55,1291,645.55,1284,645.55,1298" style="stroke: #A80036; stroke-width: 1.0;"/><!--link MStilkerich\\CardDavClient\\HttpClientAdapter to MStilkerich\\CardDavClient\\HttpClientAdapterGuzzle--><path d="M427.72,1224 C427.72,1224 472.74,1224 472.74,1224 " fill="none" id="MStilkerich\\CardDavClient\\HttpClientAdapter-MStilkerich\\CardDavClient\\HttpClientAdapterGuzzle" style="stroke: #A80036; stroke-width: 1.0;"/><polygon fill="none" points="427.72,1231,407.72,1224,427.72,1217,427.72,1231" style="stroke: #A80036; stroke-width: 1.0;"/><!--link MStilkerich\\CardDavClient\\WebDavResource to MStilkerich\\CardDavClient\\WebDavCollection--><path d="M429.18,1291 C429.18,1291 491.37,1291 491.37,1291 " fill="none" id="MStilkerich\\CardDavClient\\WebDavResource-MStilkerich\\CardDavClient\\WebDavCollection" style="stroke: #A80036; stroke-width: 1.0;"/><polygon fill="none" points="429.18,1298,409.18,1291,429.18,1284,429.18,1298" style="stroke: #A80036; stroke-width: 1.0;"/><!--link JsonSerializable to MStilkerich\\CardDavClient\\WebDavResource--><path d="M177,1193.16 C177,1193.16 177,1291 177,1291 C177,1291 231.16,1291 277.69,1291 " fill="none" id="JsonSerializable-MStilkerich\\CardDavClient\\WebDavResource" style="stroke: #A80036; stroke-width: 1.0; stroke-dasharray: 7.0,7.0;"/><polygon fill="none" points="170,1193.16,177,1173.16,184,1193.16,170,1193.16" style="stroke: #A80036; stroke-width: 1.0;"/><!--link Exception to MStilkerich\\CardDavClient\\Exception\\ClientException--><path d="M126,823.1 C126,823.1 126,849.5 126,849.5 C126,849.5 219.95,849.5 284.35,849.5 " fill="none" id="Exception-MStilkerich\\CardDavClient\\Exception\\ClientException" style="stroke: #A80036; stroke-width: 1.0;"/><polygon fill="none" points="119,823.1,126,803.1,133,823.1,119,823.1" style="stroke: #A80036; stroke-width: 1.0;"/><!--link Psr\\Http\\Client\\ClientExceptionInterface to MStilkerich\\CardDavClient\\Exception\\ClientException--><path d="M226.68,865.5 C226.68,865.5 284.36,865.5 284.36,865.5 " fill="none" id="Psr\\Http\\Client\\ClientExceptionInterface-MStilkerich\\CardDavClient\\Exception\\ClientException" style="stroke: #A80036; stroke-width: 1.0; stroke-dasharray: 7.0,7.0;"/><polygon fill="none" points="226.68,872.5,206.68,865.5,226.68,858.5,226.68,872.5" style="stroke: #A80036; stroke-width: 1.0;"/><!--link MStilkerich\\CardDavClient\\Exception\\ClientException to MStilkerich\\CardDavClient\\Exception\\NetworkException--><path d="M422.53,858 C422.53,858 491.63,858 491.63,858 " fill="none" id="MStilkerich\\CardDavClient\\Exception\\ClientException-MStilkerich\\CardDavClient\\Exception\\NetworkException" style="stroke: #A80036; stroke-width: 1.0;"/><polygon fill="none" points="422.53,865,402.53,858,422.53,851,422.53,865" style="stroke: #A80036; stroke-width: 1.0;"/><!--link Psr\\Http\\Client\\NetworkExceptionInterface to MStilkerich\\CardDavClient\\Exception\\NetworkException--><path d="M234.15,940 C234.15,940 559,940 559,940 C559,940 559,898.1 559,874.2 " fill="none" id="Psr\\Http\\Client\\NetworkExceptionInterface-MStilkerich\\CardDavClient\\Exception\\NetworkException" style="stroke: #A80036; stroke-width: 1.0; stroke-dasharray: 7.0,7.0;"/><polygon fill="none" points="234.15,947,214.15,940,234.15,933,234.15,947" style="stroke: #A80036; stroke-width: 1.0;"/><!--link Exception to MStilkerich\\CardDavClient\\Exception\\XmlParseException--><path d="M189.23,789 C189.23,789 273.81,789 273.81,789 " fill="none" id="Exception-MStilkerich\\CardDavClient\\Exception\\XmlParseException" style="stroke: #A80036; stroke-width: 1.0;"/><polygon fill="none" points="189.23,796,169.23,789,189.23,782,189.23,796" style="stroke: #A80036; stroke-width: 1.0;"/><!--link Sabre\\Xml\\XmlSerializable to MStilkerich\\CardDavClient\\XmlElements\\Filter--><path d="M98,376.89 C98,376.89 98,212 98,212 C98,212 247.84,212 313.4,212 " fill="none" id="Sabre\\Xml\\XmlSerializable-MStilkerich\\CardDavClient\\XmlElements\\Filter" style="stroke: #A80036; stroke-width: 1.0; stroke-dasharray: 7.0,7.0;"/><polygon fill="none" points="105,376.89,98,396.89,91,376.89,105,376.89" style="stroke: #A80036; stroke-width: 1.0;"/><!--link Sabre\\Xml\\XmlDeserializable to MStilkerich\\CardDavClient\\XmlElements\\Multistatus--><path d="M209.2,480 C209.2,480 296.41,480 296.41,480 " fill="none" id="Sabre\\Xml\\XmlDeserializable-MStilkerich\\CardDavClient\\XmlElements\\Multistatus" style="stroke: #A80036; stroke-width: 1.0; stroke-dasharray: 7.0,7.0;"/><polygon fill="none" points="209.2,487,189.2,480,209.2,473,209.2,487" style="stroke: #A80036; stroke-width: 1.0;"/><!--link Sabre\\Xml\\XmlSerializable to MStilkerich\\CardDavClient\\XmlElements\\ParamFilter--><path d="M126,376.84 C126,376.84 126,279 126,279 C126,279 230.86,279 294.96,279 " fill="none" id="Sabre\\Xml\\XmlSerializable-MStilkerich\\CardDavClient\\XmlElements\\ParamFilter" style="stroke: #A80036; stroke-width: 1.0; stroke-dasharray: 7.0,7.0;"/><polygon fill="none" points="133,376.84,126,396.84,119,376.84,133,376.84" style="stroke: #A80036; stroke-width: 1.0;"/><!--link Sabre\\Xml\\XmlDeserializable to MStilkerich\\CardDavClient\\XmlElements\\Prop--><path d="M184,516.22 C184,516.22 184,547 184,547 C184,547 268.2,547 314.25,547 " fill="none" id="Sabre\\Xml\\XmlDeserializable-MStilkerich\\CardDavClient\\XmlElements\\Prop" style="stroke: #A80036; stroke-width: 1.0; stroke-dasharray: 7.0,7.0;"/><polygon fill="none" points="177,516.22,184,496.22,191,516.22,177,516.22" style="stroke: #A80036; stroke-width: 1.0;"/><!--link Sabre\\Xml\\XmlSerializable to MStilkerich\\CardDavClient\\XmlElements\\PropFilter--><path d="M155,376.78 C155,376.78 155,346 155,346 C155,346 244.6,346 300.25,346 " fill="none" id="Sabre\\Xml\\XmlSerializable-MStilkerich\\CardDavClient\\XmlElements\\PropFilter" style="stroke: #A80036; stroke-width: 1.0; stroke-dasharray: 7.0,7.0;"/><polygon fill="none" points="162,376.78,155,396.78,148,376.78,162,376.78" style="stroke: #A80036; stroke-width: 1.0;"/><!--link Sabre\\Xml\\XmlDeserializable to MStilkerich\\CardDavClient\\XmlElements\\Propstat--><path d="M179,516.16 C179,516.16 179,614 179,614 C179,614 254.99,614 303.68,614 " fill="none" id="Sabre\\Xml\\XmlDeserializable-MStilkerich\\CardDavClient\\XmlElements\\Propstat" style="stroke: #A80036; stroke-width: 1.0; stroke-dasharray: 7.0,7.0;"/><polygon fill="none" points="172,516.16,179,496.16,186,516.16,172,516.16" style="stroke: #A80036; stroke-width: 1.0;"/><!--link Sabre\\Xml\\XmlDeserializable to MStilkerich\\CardDavClient\\XmlElements\\Response--><path d="M174,516.11 C174,516.11 174,681 174,681 C174,681 252.3,681 302.47,681 " fill="none" id="Sabre\\Xml\\XmlDeserializable-MStilkerich\\CardDavClient\\XmlElements\\Response" style="stroke: #A80036; stroke-width: 1.0; stroke-dasharray: 7.0,7.0;"/><polygon fill="none" points="167,516.11,174,496.11,181,516.11,167,516.11" style="stroke: #A80036; stroke-width: 1.0;"/><!--link MStilkerich\\CardDavClient\\XmlElements\\Response to MStilkerich\\CardDavClient\\XmlElements\\ResponsePropstat--><path d="M404.6,675.67 C404.6,675.67 483,675.67 483,675.67 C483,675.67 483,614 483,614 C483,614 486.48,614 491.96,614 " fill="none" id="MStilkerich\\CardDavClient\\XmlElements\\Response-MStilkerich\\CardDavClient\\XmlElements\\ResponsePropstat" style="stroke: #A80036; stroke-width: 1.0;"/><polygon fill="none" points="404.6,682.67,384.6,675.67,404.6,668.67,404.6,682.67" style="stroke: #A80036; stroke-width: 1.0;"/><!--link MStilkerich\\CardDavClient\\XmlElements\\Response to MStilkerich\\CardDavClient\\XmlElements\\ResponseStatus--><path d="M404.7,686.33 C404.7,686.33 497.92,686.33 497.92,686.33 " fill="none" id="MStilkerich\\CardDavClient\\XmlElements\\Response-MStilkerich\\CardDavClient\\XmlElements\\ResponseStatus" style="stroke: #A80036; stroke-width: 1.0;"/><polygon fill="none" points="404.7,693.33,384.7,686.33,404.7,679.33,404.7,693.33" style="stroke: #A80036; stroke-width: 1.0;"/><!--link Sabre\\Xml\\XmlSerializable to MStilkerich\\CardDavClient\\XmlElements\\TextMatch--><path d="M202.58,413 C202.58,413 297.81,413 297.81,413 " fill="none" id="Sabre\\Xml\\XmlSerializable-MStilkerich\\CardDavClient\\XmlElements\\TextMatch" style="stroke: #A80036; stroke-width: 1.0; stroke-dasharray: 7.0,7.0;"/><polygon fill="none" points="202.58,420,182.58,413,202.58,406,202.58,420" style="stroke: #A80036; stroke-width: 1.0;"/><!--link MStilkerich\\CardDavClient\\Services\\Discovery to MStilkerich\\CardDavClient\\Services\\Sync--><!--link MStilkerich\\CardDavClient\\Services\\Discovery to MStilkerich\\CardDavClient\\Services\\SyncResult--><!--link MStilkerich\\CardDavClient\\Services\\SyncResult to MStilkerich\\CardDavClient\\Services\\SyncHandler--><!--
@startuml

skinparam shadowing false
skinparam linetype ortho
hide empty members
left to right direction
set namespaceSeparator \\


class \\MStilkerich\\CardDavClient\\Account implements \\JsonSerializable {
}

class \\MStilkerich\\CardDavClient\\AddressbookCollection extends \\MStilkerich\\CardDavClient\\WebDavCollection {
}

class \\MStilkerich\\CardDavClient\\CardDavClient {
}

class \\MStilkerich\\CardDavClient\\Config {
}

abstract class \\MStilkerich\\CardDavClient\\HttpClientAdapter {
}

class \\MStilkerich\\CardDavClient\\HttpClientAdapterGuzzle extends \\MStilkerich\\CardDavClient\\HttpClientAdapter {
}

class \\MStilkerich\\CardDavClient\\WebDavCollection extends \\MStilkerich\\CardDavClient\\WebDavResource {
}

class \\MStilkerich\\CardDavClient\\WebDavResource implements \\JsonSerializable {
}

class \\MStilkerich\\CardDavClient\\Exception\\ClientException extends \\Exception implements \\Psr\\Http\\Client\\ClientExceptionInterface {
}

class \\MStilkerich\\CardDavClient\\Exception\\NetworkException extends \\MStilkerich\\CardDavClient\\Exception\\ClientException implements \\Psr\\Http\\Client\\NetworkExceptionInterface {
}

class \\MStilkerich\\CardDavClient\\Exception\\XmlParseException extends \\Exception {
}

class \\MStilkerich\\CardDavClient\\Services\\Discovery {
}

class \\MStilkerich\\CardDavClient\\Services\\Sync {
}

class \\MStilkerich\\CardDavClient\\Services\\SyncResult {
}

interface \\MStilkerich\\CardDavClient\\Services\\SyncHandler {
}

class \\MStilkerich\\CardDavClient\\XmlElements\\Deserializers {
}

class \\MStilkerich\\CardDavClient\\XmlElements\\ElementNames {
}

class \\MStilkerich\\CardDavClient\\XmlElements\\Filter implements \\Sabre\\Xml\\XmlSerializable {
}

class \\MStilkerich\\CardDavClient\\XmlElements\\Multistatus implements \\Sabre\\Xml\\XmlDeserializable {
}

class \\MStilkerich\\CardDavClient\\XmlElements\\ParamFilter implements \\Sabre\\Xml\\XmlSerializable {
}

class \\MStilkerich\\CardDavClient\\XmlElements\\Prop implements \\Sabre\\Xml\\XmlDeserializable {
}

class \\MStilkerich\\CardDavClient\\XmlElements\\PropFilter implements \\Sabre\\Xml\\XmlSerializable {
}

class \\MStilkerich\\CardDavClient\\XmlElements\\Propstat implements \\Sabre\\Xml\\XmlDeserializable {
}

abstract class \\MStilkerich\\CardDavClient\\XmlElements\\Response implements \\Sabre\\Xml\\XmlDeserializable {
}

class \\MStilkerich\\CardDavClient\\XmlElements\\ResponsePropstat extends \\MStilkerich\\CardDavClient\\XmlElements\\Response {
}

class \\MStilkerich\\CardDavClient\\XmlElements\\ResponseStatus extends \\MStilkerich\\CardDavClient\\XmlElements\\Response {
}

class \\MStilkerich\\CardDavClient\\XmlElements\\TextMatch implements \\Sabre\\Xml\\XmlSerializable {
}


@enduml

PlantUML version 1.2018.13(Mon Nov 26 18:11:51 CET 2018)
(GPL source distribution)
Java Runtime: OpenJDK Runtime Environment
JVM: OpenJDK 64-Bit Server VM
Java Version: 11.0.10+9-Ubuntu-0ubuntu1.20.04
Operating System: Linux
OS Version: 5.4.0-66-generic
Default Encoding: UTF-8
Language: en
Country: US
--></g></svg>